<svg width="1152" height="24" viewBox="0 0 1152 24" fill="none" xmlns="http://www.w3.org/2000/svg">
<path d="M559.875 11.2498C560.911 11.2498 561.75 10.4104 561.75 9.37496C561.75 8.33952 560.911 7.50012 559.875 7.50012C558.84 7.50012 558 8.33959 558 9.37512V11.2498H559.875ZM554.625 11.2498C555.661 11.2498 556.5 10.4103 556.5 9.3748V4.12512C556.5 3.08959 555.661 2.25012 554.625 2.25012C553.589 2.25012 552.75 3.08959 552.75 4.12512V9.3748C552.75 10.4103 553.589 11.2498 554.625 11.2498Z" fill="#2EB67D"/>
<path d="M544.125 12.7502C543.089 12.7502 542.25 13.5896 542.25 14.625C542.25 15.6605 543.089 16.4999 544.125 16.4999C545.16 16.4999 546 15.6604 546 14.6249V12.7502H544.125ZM549.375 12.7502C548.339 12.7502 547.5 13.5897 547.5 14.6252V19.8749C547.5 20.9104 548.339 21.7499 549.375 21.7499C550.411 21.7499 551.25 20.9104 551.25 19.8749V14.6252C551.25 13.5897 550.411 12.7502 549.375 12.7502Z" fill="#E01E5A"/>
<path d="M552.75 19.8752C552.75 20.9106 553.59 21.75 554.625 21.75C555.66 21.75 556.5 20.9105 556.5 19.8751C556.5 18.8395 555.66 18 554.625 18L552.75 18L552.75 19.8752ZM552.75 14.625C552.75 15.6605 553.59 16.5 554.625 16.5L559.875 16.5C560.91 16.5 561.75 15.6605 561.75 14.625C561.75 13.5895 560.91 12.75 559.875 12.75L554.625 12.75C553.59 12.75 552.75 13.5895 552.75 14.625Z" fill="#ECB22E"/>
<path d="M551.25 4.12484C551.25 3.08939 550.41 2.25 549.375 2.25C548.34 2.25 547.5 3.08947 547.5 4.12492C547.5 5.16045 548.34 6 549.375 6L551.25 6L551.25 4.12484ZM551.25 9.375C551.25 8.33947 550.41 7.5 549.375 7.5L544.125 7.5C543.09 7.5 542.25 8.33947 542.25 9.375C542.25 10.4105 543.09 11.25 544.125 11.25L549.375 11.25C550.41 11.25 551.25 10.4105 551.25 9.375Z" fill="#36C5F0"/>
<g clip-path="url(#clip0_4627_392529)">
<path fill-rule="evenodd" clip-rule="evenodd" d="M600 0C593.372 0 588 5.3808 588 12.0204C588 17.3304 591.438 21.8364 596.207 23.4252C596.807 23.5356 597.025 23.1648 597.025 22.8456C597.025 22.5612 597.016 21.804 597.01 20.802C593.671 21.528 592.967 19.1904 592.967 19.1904C592.422 17.8008 591.635 17.4312 591.635 17.4312C590.545 16.6872 591.718 16.7016 591.718 16.7016C592.921 16.7856 593.555 17.94 593.555 17.94C594.625 19.776 596.364 19.2456 597.047 18.9384C597.157 18.162 597.467 17.6328 597.81 17.3328C595.146 17.0292 592.344 15.9972 592.344 11.3916C592.344 10.08 592.812 9.006 593.579 8.166C593.455 7.8624 593.044 6.6396 593.696 4.986C593.696 4.986 594.704 4.662 596.996 6.2172C597.975 5.95022 598.985 5.81423 600 5.8128C601.02 5.8176 602.046 5.9508 603.005 6.2172C605.296 4.662 606.301 4.9848 606.301 4.9848C606.956 6.6396 606.544 7.8624 606.421 8.166C607.189 9.006 607.655 10.08 607.655 11.3916C607.655 16.0092 604.848 17.0256 602.176 17.3232C602.606 17.694 602.989 18.4272 602.989 19.5492C602.989 21.1548 602.975 22.452 602.975 22.8456C602.975 23.1672 603.191 23.5416 603.8 23.424C606.19 22.6225 608.267 21.0904 609.739 19.0441C611.21 16.9977 612.001 14.5408 612 12.0204C612 5.3808 606.626 0 600 0Z" fill="black"/>
</g>
<defs>
<clipPath id="clip0_4627_392529">
<rect width="24" height="24" fill="white" transform="translate(588)"/>
</clipPath>
</defs>
</svg>
